<svg width="40" height="41" viewBox="0 0 40 41" fill="none" xmlns="http://www.w3.org/2000/svg">
<path d="M20 2.84766C16.3546 2.85196 12.8597 4.30199 10.282 6.87969C7.70435 9.45738 6.25432 12.9522 6.25001 16.5977C6.24565 19.5767 7.21874 22.4749 9.02001 24.8477C9.02001 24.8477 9.39501 25.3414 9.45626 25.4127L20 37.8477L30.5488 25.4064C30.6038 25.3402 30.98 24.8477 30.98 24.8477L30.9813 24.8439C32.7816 22.4722 33.7543 19.5753 33.75 16.5977C33.7457 12.9522 32.2957 9.45738 29.718 6.87969C27.1403 4.30199 23.6454 2.85196 20 2.84766ZM20 21.5977C19.0111 21.5977 18.0444 21.3044 17.2222 20.755C16.3999 20.2056 15.7591 19.4247 15.3806 18.5111C15.0022 17.5974 14.9032 16.5921 15.0961 15.6222C15.289 14.6523 15.7652 13.7614 16.4645 13.0621C17.1637 12.3629 18.0547 11.8867 19.0246 11.6937C19.9945 11.5008 20.9998 11.5998 21.9134 11.9783C22.8271 12.3567 23.608 12.9976 24.1574 13.8198C24.7068 14.6421 25 15.6087 25 16.5977C24.9984 17.9232 24.471 19.194 23.5337 20.1314C22.5964 21.0687 21.3256 21.596 20 21.5977Z" fill="#25C373"/>
</svg>
