<svg width="19" height="19" viewBox="0 0 19 19" fill="none" xmlns="http://www.w3.org/2000/svg">
<path d="M6.15211 1.93089L7.00395 1.65855C7.80274 1.40364 8.65615 1.8161 8.99815 2.62201L9.67899 4.22751C9.97507 4.92655 9.81041 5.7491 9.27207 6.26051L7.77186 7.68393C7.86449 8.53576 8.15107 9.37414 8.63082 10.1991C9.0864 10.9972 9.69749 11.6957 10.4279 12.2534L12.2297 11.6518C12.9122 11.4246 13.6563 11.6866 14.0743 12.3017L15.0504 13.7346C15.5373 14.4503 15.4494 15.4367 14.8454 16.0431L14.1986 16.6931C13.5542 17.3399 12.6335 17.575 11.7824 17.309C9.77161 16.682 7.92465 14.8208 6.2384 11.7254C4.54978 8.62522 3.95365 5.99372 4.45082 3.83405C4.65982 2.92522 5.30661 2.20085 6.15211 1.93089Z" fill="white"/>
</svg>
