<svg width="19" height="18" viewBox="0 0 19 18" fill="none" xmlns="http://www.w3.org/2000/svg">
<path d="M12.6172 10.5105C12.4263 10.4123 11.4749 9.9463 11.298 9.88322C11.121 9.81665 10.9913 9.78511 10.8634 9.98134C10.7338 10.1758 10.3659 10.6086 10.2502 10.74C10.1381 10.8696 10.0242 10.8854 9.83325 10.789C8.69793 10.2214 7.95331 9.77635 7.20519 8.49211C7.00721 8.15046 7.40317 8.17499 7.77285 7.43738C7.83592 7.30773 7.80439 7.19735 7.75533 7.09924C7.70627 7.00112 7.32082 6.05152 7.15964 5.66432C7.0037 5.28763 6.84252 5.34019 6.72513 5.33318C6.613 5.32617 6.4851 5.32617 6.35545 5.32617C6.2258 5.32617 6.01731 5.37523 5.84035 5.5662C5.66339 5.76068 5.16406 6.22847 5.16406 7.17808C5.16406 8.12768 5.85612 9.0475 5.95073 9.17715C6.04884 9.3068 7.31206 11.2551 9.25157 12.0943C10.478 12.6234 10.9581 12.669 11.5713 12.5779C11.9445 12.5218 12.7136 12.1118 12.873 11.658C13.0325 11.206 13.0325 10.8188 12.9852 10.7382C12.9379 10.6524 12.8082 10.6033 12.6172 10.5105Z" fill="white"/>
<path d="M16.3269 5.92869C15.931 4.98784 15.3633 4.14336 14.6397 3.41802C13.9161 2.69443 13.0717 2.12501 12.1291 1.7308C11.1654 1.32608 10.1422 1.12109 9.08752 1.12109H9.05248C7.99074 1.12635 6.96229 1.33659 5.99517 1.75008C5.06133 2.14954 4.22386 2.7172 3.50727 3.44079C2.79069 4.16439 2.22828 5.00537 1.83933 5.94271C1.43636 6.91334 1.23312 7.94529 1.23838 9.00702C1.24364 10.2229 1.53448 11.4301 2.07936 12.5093V15.1725C2.07936 15.6175 2.44028 15.9784 2.8853 15.9784H5.55015C6.62941 16.5233 7.83656 16.8141 9.05248 16.8194H9.08927C10.1387 16.8194 11.1567 16.6161 12.115 16.2184C13.0524 15.8277 13.8951 15.2671 14.617 14.5505C15.3405 13.8339 15.91 12.9964 16.3077 12.0626C16.7212 11.0955 16.9314 10.067 16.9367 9.00527C16.9419 7.93828 16.7352 6.90282 16.3269 5.92869ZM13.6796 13.6026C12.4514 14.8185 10.822 15.4878 9.08752 15.4878H9.05773C8.00125 15.4826 6.95178 15.2198 6.02495 14.7257L5.87778 14.6468H3.41091V12.18L3.33207 12.0328C2.83799 11.106 2.57519 10.0565 2.56993 9.00002C2.56292 7.25323 3.23045 5.61332 4.45512 4.37813C5.67805 3.14295 7.3127 2.45965 9.05948 2.45264H9.08927C9.96529 2.45264 10.815 2.62259 11.6157 2.95898C12.3971 3.28661 13.0979 3.75791 13.7006 4.36061C14.3016 4.96156 14.7746 5.66413 15.1023 6.44554C15.4422 7.25498 15.6121 8.11348 15.6086 9.00002C15.5981 10.745 14.913 12.3797 13.6796 13.6026Z" fill="white"/>
</svg>
